<svg xmlns="http://www.w3.org/2000/svg" style="overflow: hidden; display: block; width: 654px; height: 1065px;" width="654px" height="1065px" viewBox="0 0 654 1065" xmlns:xlink="http://www.w3.org/1999/xlink"><defs><path fill="rgb(0,0,0)" stroke="rgb(0,0,0)" d="M 0,0 L 10,-5 L 5,0 L 10,5 Z" fill-opacity="1" stroke-opacity="1" stroke-width="1" stroke-linecap="butt" stroke-linejoin="miter" stroke-miterlimit="10" id="ygc114_0"/><path fill="rgb(0,0,0)" stroke="rgb(0,0,0)" d="M 0,0 L 10,-5 L 5,0 L 10,5 Z" fill-opacity="1" stroke-opacity="1" stroke-width="1" stroke-linecap="butt" stroke-linejoin="miter" stroke-miterlimit="10" id="ygc114_1"/><path fill="rgb(0,0,0)" stroke="rgb(0,0,0)" d="M 0,0 L 10,-5 L 5,0 L 10,5 Z" fill-opacity="1" stroke-opacity="1" stroke-width="1" stroke-linecap="butt" stroke-linejoin="miter" stroke-miterlimit="10" id="ygc114_2"/><path fill="rgb(0,0,0)" stroke="rgb(0,0,0)" d="M 0,0 L 10,-5 L 5,0 L 10,5 Z" fill-opacity="1" stroke-opacity="1" stroke-width="1" stroke-linecap="butt" stroke-linejoin="miter" stroke-miterlimit="10" id="ygc114_3"/><path fill="rgb(0,0,0)" stroke="rgb(0,0,0)" d="M 0,0 L 10,-5 L 5,0 L 10,5 Z" fill-opacity="1" stroke-opacity="1" stroke-width="1" stroke-linecap="butt" stroke-linejoin="miter" stroke-miterlimit="10" id="ygc114_4"/><path fill="rgb(0,0,0)" stroke="rgb(0,0,0)" d="M 0,0 L 10,-5 L 5,0 L 10,5 Z" fill-opacity="1" stroke-opacity="1" stroke-width="1" stroke-linecap="butt" stroke-linejoin="miter" stroke-miterlimit="10" id="ygc114_5"/><path fill="rgb(0,0,0)" stroke="rgb(0,0,0)" d="M 0,0 L 10,-5 L 5,0 L 10,5 Z" fill-opacity="1" stroke-opacity="1" stroke-width="1" stroke-linecap="butt" stroke-linejoin="miter" stroke-miterlimit="10" id="ygc114_6"/><path fill="rgb(0,0,0)" stroke="rgb(0,0,0)" d="M 0,0 L 10,-5 L 5,0 L 10,5 Z" fill-opacity="1" stroke-opacity="1" stroke-width="1" stroke-linecap="butt" stroke-linejoin="miter" stroke-miterlimit="10" id="ygc114_7"/><path fill="rgb(0,0,0)" stroke="rgb(0,0,0)" d="M 0,0 L 10,-5 L 5,0 L 10,5 Z" fill-opacity="1" stroke-opacity="1" stroke-width="1" stroke-linecap="butt" stroke-linejoin="miter" stroke-miterlimit="10" id="ygc114_8"/><path fill="rgb(0,0,0)" stroke="rgb(0,0,0)" d="M 0,0 L 10,-5 L 5,0 L 10,5 Z" fill-opacity="1" stroke-opacity="1" stroke-width="1" stroke-linecap="butt" stroke-linejoin="miter" stroke-miterlimit="10" id="ygc114_9"/><path fill="rgb(0,0,0)" stroke="rgb(0,0,0)" d="M 0,0 L 10,-5 L 5,0 L 10,5 Z" fill-opacity="1" stroke-opacity="1" stroke-width="1" stroke-linecap="butt" stroke-linejoin="miter" stroke-miterlimit="10" id="ygc114_10"/><linearGradient x1="0" y1="0" x2="1" y2="1" spreadMethod="pad" id="ygc114_11"><stop stop-color="rgb(51,204,204)" stop-opacity="1" offset="0"/><stop stop-color="rgb(0,255,0)" stop-opacity="1" offset="1"/></linearGradient><linearGradient x1="0" y1="0" x2="1" y2="1" spreadMethod="pad" id="ygc114_12"><stop stop-color="rgb(232,238,247)" stop-opacity="1" offset="0"/><stop stop-color="rgb(183,201,227)" stop-opacity="1" offset="1"/></linearGradient><linearGradient x1="0" y1="0" x2="1" y2="1" spreadMethod="pad" id="ygc114_13"><stop stop-color="rgb(232,238,247)" stop-opacity="1" offset="0"/><stop stop-color="rgb(183,201,227)" stop-opacity="1" offset="1"/></linearGradient><linearGradient x1="0" y1="0" x2="1" y2="1" spreadMethod="pad" id="ygc114_14"><stop stop-color="rgb(232,238,247)" stop-opacity="1" offset="0"/><stop stop-color="rgb(183,201,227)" stop-opacity="1" offset="1"/></linearGradient><linearGradient x1="0" y1="0" x2="1" y2="1" spreadMethod="pad" id="ygc114_15"><stop stop-color="rgb(232,238,247)" stop-opacity="1" offset="0"/><stop stop-color="rgb(183,201,227)" stop-opacity="1" offset="1"/></linearGradient><linearGradient x1="0" y1="0" x2="1" y2="1" spreadMethod="pad" id="ygc114_16"><stop stop-color="rgb(232,238,247)" stop-opacity="1" offset="0"/><stop stop-color="rgb(183,201,227)" stop-opacity="1" offset="1"/></linearGradient><linearGradient x1="0" y1="0" x2="1" y2="1" spreadMethod="pad" id="ygc114_17"><stop stop-color="rgb(232,238,247)" stop-opacity="1" offset="0"/><stop stop-color="rgb(183,201,227)" stop-opacity="1" offset="1"/></linearGradient><linearGradient x1="0" y1="0" x2="1" y2="1" spreadMethod="pad" id="ygc114_18"><stop stop-color="rgb(204,255,255)" stop-opacity="1" offset="0"/><stop stop-color="rgb(128,128,0)" stop-opacity="1" offset="1"/></linearGradient><linearGradient x1="0" y1="0" x2="1" y2="1" spreadMethod="pad" id="ygc114_19"><stop stop-color="rgb(232,238,247)" stop-opacity="1" offset="0"/><stop stop-color="rgb(183,201,227)" stop-opacity="1" offset="1"/></linearGradient></defs><g style="pointer-events:visiblePainted" transform="translate(-110 3.2883521582112962)" image-rendering="auto" shape-rendering="auto"><g><path fill="none" stroke="rgb(0,0,0)" d="M 220,182 L 297,182" stroke-opacity="1" stroke-width="1" stroke-linecap="butt" stroke-linejoin="miter" stroke-miterlimit="1.45"/><use xlink:href="#ygc114_0" style="pointer-events: none;" transform="matrix(-1 0 0 -1 302 182)"/></g><g><path fill="none" stroke="rgb(0,0,0)" d="M 422,182 L 479,182" stroke-opacity="1" stroke-width="1" stroke-linecap="butt" stroke-linejoin="miter" stroke-miterlimit="1.45"/><use xlink:href="#ygc114_1" style="pointer-events: none;" transform="matrix(-1 0 0 -1 484 182)"/></g><g><path fill="none" stroke="rgb(0,0,0)" d="M 554.5,202 L 554.5,283" stroke-opacity="1" stroke-width="1" stroke-linecap="butt" stroke-linejoin="miter" stroke-miterlimit="1.45"/><use xlink:href="#ygc114_2" style="pointer-events: none;" transform="matrix(0 -1 1 0 554.5 288)"/></g><g><path fill="none" stroke="rgb(0,0,0)" d="M 554.5,328 L 554.5,409" stroke-opacity="1" stroke-width="1" stroke-linecap="butt" stroke-linejoin="miter" stroke-miterlimit="1.45"/><use xlink:href="#ygc114_3" style="pointer-events: none;" transform="matrix(0 -1 1 0 554.5 414)"/></g><g><path fill="none" stroke="rgb(0,0,0)" d="M 554.5,454 L 554.5,535" stroke-opacity="1" stroke-width="1" stroke-linecap="butt" stroke-linejoin="miter" stroke-miterlimit="1.45"/><use xlink:href="#ygc114_4" style="pointer-events: none;" transform="matrix(0 -1 1 0 554.5 540)"/></g><g><path fill="none" stroke="rgb(0,0,0)" d="M 554.5,580 L 554.5,661" stroke-opacity="1" stroke-width="1" stroke-linecap="butt" stroke-linejoin="miter" stroke-miterlimit="1.45"/><use xlink:href="#ygc114_5" style="pointer-events: none;" transform="matrix(0 -1 1 0 554.5 666)"/></g><g><path fill="none" stroke="rgb(0,0,0)" d="M 606.5,965 L 713,965 L 713,560 L 630,560" stroke-opacity="1" stroke-width="1" stroke-linecap="butt" stroke-linejoin="miter" stroke-miterlimit="1.45"/><use xlink:href="#ygc114_6" style="pointer-events: none;" transform="translate(625 560)"/></g><g><path fill="none" stroke="rgb(0,0,0)" d="M 502.5,965 L 225,965" stroke-opacity="1" stroke-width="1" stroke-linecap="butt" stroke-linejoin="miter" stroke-miterlimit="1.45"/><use xlink:href="#ygc114_7" style="pointer-events: none;" transform="translate(220 965)"/></g><g><path fill="none" stroke="rgb(0,0,0)" d="M 554.5,859 L 554.5,913" stroke-opacity="1" stroke-width="1" stroke-linecap="butt" stroke-linejoin="miter" stroke-miterlimit="1.45"/><use xlink:href="#ygc114_8" style="pointer-events: none;" transform="matrix(0 -1 1 0 554.5 918)"/></g><g><path fill="none" stroke="rgb(0,0,0)" d="M 554.5,706 L 554.5,760" stroke-opacity="1" stroke-width="1" stroke-linecap="butt" stroke-linejoin="miter" stroke-miterlimit="1.45"/><use xlink:href="#ygc114_9" style="pointer-events: none;" transform="matrix(0 -1 1 0 554.5 765)"/></g><g><path fill="none" stroke="rgb(0,0,0)" d="M 606.5,812 L 681.5,812 L 681.5,560 L 630,560" stroke-opacity="1" stroke-width="1" stroke-linecap="butt" stroke-linejoin="miter" stroke-miterlimit="1.45"/><use xlink:href="#ygc114_10" style="pointer-events: none;" transform="translate(625 560)"/></g><g transform="translate(160 162)"><circle cx="40" cy="20" r="20" fill="url(#ygc114_11)" stroke="none"/></g><g transform="translate(302 162)"><path d="M 0,0 L 110,0 L 120,20 L 110,40 L 0,40 Z" fill="rgb(255,255,0)" fill-opacity="1" stroke="rgb(0,0,0)" stroke-opacity="1" stroke-width="1" stroke-linecap="butt" stroke-linejoin="miter" stroke-miterlimit="1.45"/></g><g transform="translate(484 162)"><path d="M 0,0 L 141,0 L 141,40 L 0,40 Z M 10,0 L 10,40 M 131,0 L 131,40" fill="url(#ygc114_12)" stroke="rgb(0,0,0)" stroke-opacity="1" stroke-width="1" stroke-linecap="butt" stroke-linejoin="miter" stroke-miterlimit="1.45"/></g><g transform="translate(484 288)"><path d="M 0,0 L 141,0 L 141,40 L 0,40 Z M 10,0 L 10,40 M 131,0 L 131,40" fill="url(#ygc114_13)" stroke="rgb(0,0,0)" stroke-opacity="1" stroke-width="1" stroke-linecap="butt" stroke-linejoin="miter" stroke-miterlimit="1.45"/></g><g transform="translate(484 414)"><path d="M 0,0 L 141,0 L 141,40 L 0,40 Z M 10,0 L 10,40 M 131,0 L 131,40" fill="url(#ygc114_14)" stroke="rgb(0,0,0)" stroke-opacity="1" stroke-width="1" stroke-linecap="butt" stroke-linejoin="miter" stroke-miterlimit="1.45"/></g><g transform="translate(484 540)"><path d="M 0,0 L 141,0 L 141,40 L 0,40 Z M 10,0 L 10,40 M 131,0 L 131,40" fill="url(#ygc114_15)" stroke="rgb(0,0,0)" stroke-opacity="1" stroke-width="1" stroke-linecap="butt" stroke-linejoin="miter" stroke-miterlimit="1.45"/></g><g transform="translate(484 666)"><path d="M 0,0 L 141,0 L 141,40 L 0,40 Z M 10,0 L 10,40 M 131,0 L 131,40" fill="url(#ygc114_16)" stroke="rgb(0,0,0)" stroke-opacity="1" stroke-width="1" stroke-linecap="butt" stroke-linejoin="miter" stroke-miterlimit="1.45"/></g><g transform="translate(502.5 918)"><path d="M 52,0 L 104,47 L 52,94 L 0,47 Z" fill="url(#ygc114_17)" stroke="rgb(0,0,0)" stroke-opacity="1" stroke-width="1" stroke-linecap="butt" stroke-linejoin="miter" stroke-miterlimit="1.45"/></g><g transform="translate(160 945)"><circle cx="40" cy="20" r="20" fill="url(#ygc114_18)" stroke="rgb(0,0,0)" stroke-opacity="1" stroke-width="4" stroke-linecap="butt" stroke-linejoin="miter" stroke-miterlimit="1.45"/></g><g transform="translate(502.5 765)"><path d="M 52,0 L 104,47 L 52,94 L 0,47 Z" fill="url(#ygc114_19)" stroke="rgb(0,0,0)" stroke-opacity="1" stroke-width="1" stroke-linecap="butt" stroke-linejoin="miter" stroke-miterlimit="1.45"/></g><rect fill="none" stroke="none" width="10.6738" height="18.7012" x="484" y="143.299"/><rect fill="none" stroke="none" width="10.6738" height="18.7012" x="484" y="269.299"/><rect fill="none" stroke="none" width="10.6738" height="18.7012" x="484" y="395.299"/><rect fill="none" stroke="none" width="10.6738" height="18.7012" x="484" y="521.299"/><rect fill="none" stroke="none" width="10.6738" height="18.7012" x="484" y="647.299"/><rect fill="rgb(255,204,0)" stroke="rgb(0,0,0)" width="323" height="85.2884" x="302" y="46.7116" rx="10" ry="10" fill-opacity="1" stroke-opacity="1" stroke-width="1" stroke-linecap="butt" stroke-linejoin="miter" stroke-miterlimit="1.45"/><g transform="translate(656.7838134765625 988)"><text font-family="Dialog" font-size="12px" font-style="normal" font-weight="normal" text-anchor="middle" fill="rgb(0,0,0)" fill-opacity="1" dy="1em" transform="translate(12.5 0)">YES</text></g><g transform="translate(360.72198486328125 928)"><text font-family="Dialog" font-size="12px" font-style="normal" font-weight="normal" text-anchor="middle" fill="rgb(0,0,0)" fill-opacity="1" dy="1em" transform="translate(10.5 0)">NO</text></g><g transform="translate(512 881.471923828125)"><text font-family="Dialog" font-size="12px" font-style="normal" font-weight="normal" text-anchor="middle" fill="rgb(0,0,0)" fill-opacity="1" dy="1em" transform="translate(12.5 0)">YES</text></g><g transform="translate(641.503173828125 835)"><text font-family="Dialog" font-size="12px" font-style="normal" font-weight="normal" text-anchor="middle" fill="rgb(0,0,0)" fill-opacity="1" dy="1em" transform="translate(10.5 0)">NO</text></g><g transform="translate(194.6630859375 172.6494140625)"><text font-family="Dialog" font-size="12px" font-style="normal" font-weight="normal" text-anchor="middle" fill="rgb(0,0,0)" fill-opacity="1" dy="1em" transform="translate(4 0)">0</text></g><g transform="translate(314.314453125 172.6494140625)"><text font-family="Dialog" font-size="12px" font-style="normal" font-weight="normal" text-anchor="middle" fill="rgb(0,0,0)" fill-opacity="1" dy="1em" transform="translate(51.5 0)">POST /_replicate</text></g><g transform="translate(519.822265625 172.6494140625)"><text font-family="Dialog" font-size="12px" font-style="normal" font-weight="normal" text-anchor="middle" fill="rgb(0,0,0)" fill-opacity="1" dy="1em" transform="translate(36.5 0)">Verify Peers</text></g><g transform="translate(522.4853515625 291.298828125)"><text font-family="Dialog" font-size="12px" font-style="normal" font-weight="normal" text-anchor="middle" fill="rgb(0,0,0)" fill-opacity="1" transform="translate(36 0)"><tspan x="0" dy="1em">Get Peers</tspan><tspan x="0" dy="1.5em">Information</tspan></text></g><g transform="translate(514.8212890625 417.298828125)"><text font-family="Dialog" font-size="12px" font-style="normal" font-weight="normal" text-anchor="middle" fill="rgb(0,0,0)" fill-opacity="1" transform="translate(42.5 0)"><tspan x="0" dy="1em">Find Common</tspan><tspan x="0" dy="1.5em">Ancestry</tspan></text></g><g transform="translate(508.4638671875 543.298828125)"><text font-family="Dialog" font-size="12px" font-style="normal" font-weight="normal" text-anchor="middle" fill="rgb(0,0,0)" fill-opacity="1" transform="translate(50 0)"><tspan x="0" dy="1em">Locate Changed</tspan><tspan x="0" dy="1.5em">Documents</tspan></text></g><g transform="translate(501.8017578125 676.6494140625)"><text font-family="Dialog" font-size="12px" font-style="normal" font-weight="normal" text-anchor="middle" fill="rgb(0,0,0)" fill-opacity="1" dy="1em" transform="translate(57.5 0)">Replicate Changes</text></g><g transform="translate(519.4794921875 948.298828125)"><text font-family="Dialog" font-size="12px" font-style="normal" font-weight="normal" text-anchor="middle" fill="rgb(0,0,0)" fill-opacity="1" transform="translate(38 0)"><tspan x="0" dy="1em">Continuous</tspan><tspan x="0" dy="1.5em">Replication?</tspan></text></g><g transform="translate(194.6630859375 955.6494140625)"><text font-family="Dialog" font-size="12px" font-style="normal" font-weight="normal" text-anchor="middle" fill="rgb(0,0,0)" fill-opacity="1" dy="1em" transform="translate(4 0)">6</text></g><g transform="translate(522.81640625 795.298828125)"><text font-family="Dialog" font-size="12px" font-style="normal" font-weight="normal" text-anchor="middle" fill="rgb(0,0,0)" fill-opacity="1" transform="translate(35 0)"><tspan x="0" dy="1em">Replication</tspan><tspan x="0" dy="1.5em">DONE?</tspan></text></g><g transform="translate(484 143.298828125)"><text font-family="Dialog" font-size="12px" font-style="normal" font-weight="normal" text-anchor="middle" fill="rgb(0,0,0)" fill-opacity="1" dy="1em" transform="translate(4 0)">1</text></g><g transform="translate(484 269.298828125)"><text font-family="Dialog" font-size="12px" font-style="normal" font-weight="normal" text-anchor="middle" fill="rgb(0,0,0)" fill-opacity="1" dy="1em" transform="translate(4 0)">2</text></g><g transform="translate(484 391.298828125)"><text font-family="Dialog" font-size="12px" font-style="normal" font-weight="normal" text-anchor="middle" fill="rgb(0,0,0)" fill-opacity="1" dy="1em" transform="translate(4 0)">3</text></g><g transform="translate(484 521.298828125)"><text font-family="Dialog" font-size="12px" font-style="normal" font-weight="normal" text-anchor="middle" fill="rgb(0,0,0)" fill-opacity="1" dy="1em" transform="translate(4 0)">4</text></g><g transform="translate(484 647.298828125)"><text font-family="Dialog" font-size="12px" font-style="normal" font-weight="normal" text-anchor="middle" fill="rgb(0,0,0)" fill-opacity="1" dy="1em" transform="translate(4 0)">5</text></g><g transform="translate(302 64.47984735839435)"><text font-family="Verdana" font-size="18px" font-style="normal" font-weight="normal" text-anchor="middle" fill="rgb(0,0,0)" fill-opacity="1" transform="translate(161.5 0)"><tspan dy="1em" x="0">CouchDB Replication Algorithm</tspan><tspan dy="1.5em" x="0">- replication -</tspan></text></g></g></svg>